<?xml version="1.0" encoding="UTF-8" standalone="no"?>
<!-- Created with Inkscape (http://www.inkscape.org/) -->

<svg
   xmlns:dc="http://purl.org/dc/elements/1.1/"
   xmlns:cc="http://creativecommons.org/ns#"
   xmlns:rdf="http://www.w3.org/1999/02/22-rdf-syntax-ns#"
   xmlns:svg="http://www.w3.org/2000/svg"
   xmlns="http://www.w3.org/2000/svg"
   xmlns:sodipodi="http://sodipodi.sourceforge.net/DTD/sodipodi-0.dtd"
   xmlns:inkscape="http://www.inkscape.org/namespaces/inkscape"
   width="210mm"
   height="297mm"
   viewBox="0 0 744.09448819 1052.3622047"
   id="svg2"
   version="1.1"
   inkscape:version="0.91 r13725"
   sodipodi:docname="Building_model_gray.svg">
  <defs
     id="defs4" />
  <sodipodi:namedview
     id="base"
     pagecolor="#ffffff"
     bordercolor="#666666"
     borderopacity="1.0"
     inkscape:pageopacity="0.0"
     inkscape:pageshadow="2"
     inkscape:zoom="0.92"
     inkscape:cx="375"
     inkscape:cy="810.22226"
     inkscape:document-units="px"
     inkscape:current-layer="g3347"
     showgrid="false"
     inkscape:window-width="1366"
     inkscape:window-height="705"
     inkscape:window-x="-8"
     inkscape:window-y="-8"
     inkscape:window-maximized="1" />
  <metadata
     id="metadata7">
    <rdf:RDF>
      <cc:Work
         rdf:about="">
        <dc:format>image/svg+xml</dc:format>
        <dc:type
           rdf:resource="http://purl.org/dc/dcmitype/StillImage" />
        <dc:title></dc:title>
      </cc:Work>
    </rdf:RDF>
  </metadata>
  <g
     inkscape:label="Layer 1"
     inkscape:groupmode="layer"
     id="layer1">
    <g
       id="g3347"
       transform="translate(-5.9206094,-161.56261)">
      <path
         style="fill:#ecebea"
         d="m 29.297247,349.24372 0,-181.40625 343.125003,0 343.125,0 0,181.40625 0,181.40625 -343.125,0 -343.125003,0 0,-181.40625 z"
         id="path3363"
         inkscape:connector-curvature="0" />
      <path
         style="fill:#bcc1c5"
         d="m 118.24672,523.34028 c -1.2456,-0.87244 -1.60357,-1.90127 -1.20881,-3.47413 0.70069,-2.79177 -0.41678,-5.00665 -1.58645,-3.14439 -0.4394,0.69958 -0.60265,1.90477 -0.36277,2.67821 0.38099,1.22843 -3.11878,1.40625 -27.677655,1.40625 l -28.113788,0 0,-2.05404 c 0,-1.12973 -0.377669,-2.28747 -0.839264,-2.57275 -1.011351,-0.62505 -2.199571,2.09587 -1.447014,3.31353 2.279002,3.68751 -0.336316,4.59451 -13.248108,4.59451 l -12.595535,0 0.236836,-175.07813 0.236835,-175.07812 6.883594,-0.2772 c 7.544258,-0.3038 9.98655,0.74577 9.152953,3.93345 -0.722625,2.76332 0.380916,6.73925 1.416838,5.10471 0.439535,-0.69353 0.805479,-2.10471 0.81321,-3.13596 0.01366,-1.82141 0.643743,-1.875 22.045215,-1.875 19.725483,0 22.031198,0.15969 22.031549,1.52583 6.02e-4,2.34868 2.787764,4.37205 2.899044,2.10459 0.0474,-0.96548 0.15285,-3.02105 0.23437,-4.56792 l 0.14823,-2.8125 22.96875,0 22.96875,0 0.46875,4.21875 c 0.50351,4.53158 2.16782,5.72367 2.61774,1.875 l 0.27399,-2.34375 51.95194,0 51.95194,0 0.27407,2.27145 c 0.51742,4.28832 2.61782,3.36119 2.61782,-1.15552 0,-5.66616 -2.92293,-5.33659 47.18605,-5.32032 46.64592,0.0151 47.15772,0.0637 46.29284,4.38803 -0.61581,3.0791 0.48067,5.53316 2.04129,4.56864 0.57328,-0.3543 1.04227,-1.56851 1.04222,-2.69823 l -9e-5,-2.05405 37.26572,0.20434 c 20.49614,0.1124 43.69931,0.21786 51.56259,0.23438 l 14.29688,0.03 0,2.41249 c 0,1.79679 0.41871,2.3293 1.64062,2.08653 1.18528,-0.2355 1.64063,-1.2303 1.64063,-3.58437 0,-5.91431 -2.65001,-5.60345 47.63345,-5.58779 48.59981,0.0151 49.05548,0.0566 48.18919,4.38803 -0.65933,3.29667 0.74043,6.16739 2.0312,4.16571 0.45243,-0.70161 0.64181,-1.96724 0.42085,-2.8125 -0.36788,-1.40732 2.74311,-1.5217 36.91179,-1.35707 20.52243,0.0989 43.9287,0.20435 52.01394,0.23438 14.51226,0.0539 14.70426,0.0816 15,2.16396 0.52177,3.67388 3.11208,2.5515 3.11208,-1.34845 0,-5.54241 -0.17973,-5.50536 25.37613,-5.2308 l 23.37387,0.25113 0.23911,89.89824 c 0.25428,95.60887 0.36629,93.15367 -4.19704,92.00834 -1.22213,-0.30673 -2.64501,-0.29629 -3.16196,0.0232 -1.44355,0.89216 1.02527,3.35309 2.79912,2.79017 1.37382,-0.43597 1.50827,4.22274 1.50827,52.26327 0,52.12317 -0.022,52.74169 -1.875,52.7231 -1.03125,-0.0103 -1.875,0.40306 -1.875,0.91868 0,0.51563 1.02958,0.84707 2.28797,0.73655 4.70528,-0.41326 4.74328,-0.17458 4.74328,29.79167 0,16.45082 -0.36294,28.17918 -0.88193,28.49993 -0.48505,0.29979 -45.49039,0.54358 -100.01185,0.54178 -104.63516,-0.004 -101.29889,0.13341 -100.27629,-4.11347 0.53017,-2.20178 -0.33045,-4.51168 -1.42816,-3.83325 -0.4616,0.28529 -0.83927,1.59422 -0.83927,2.90876 0,2.17742 -0.22936,2.31845 -2.57813,1.58529 -1.41797,-0.44262 -8.48437,-0.70129 -15.70312,-0.57485 -7.21875,0.12645 -15.86719,0.135 -19.21875,0.019 -6.19329,-0.21435 -18.78325,-0.23388 -32.34375,-0.0502 -4.125,0.0559 -12.14063,0.0538 -17.8125,-0.005 -5.67188,-0.0584 -11.78907,0.0715 -13.59375,0.28876 -2.379,0.28642 -3.20776,0.0539 -3.01398,-0.84571 0.14699,-0.6824 -0.23764,-1.84911 -0.85475,-2.59268 -1.43774,-1.73238 -2.82879,0.15145 -2.17669,2.94776 1.02049,4.37598 2.14615,4.28878 -56.31194,4.36202 -60.55415,0.0758 -58.00701,0.31823 -56.911,-5.41519 0.34956,-1.82857 0.1344,-2.34621 -0.83333,-2.00493 -0.71751,0.25304 -1.19457,1.41643 -1.06012,2.58531 0.22466,1.95323 -0.003,2.06423 -2.8125,1.37154 -4.26067,-1.05046 -27.20454,-1.28372 -28.47222,-0.28947 -0.59605,0.4675 -5.07217,0.34285 -10.48214,-0.29188 -7.05688,-0.82796 -12.12235,-0.84777 -20.05348,-0.0785 -7.41232,0.71901 -13.15542,0.74121 -19.0491,0.0736 -8.19395,-0.92814 -18.43114,-0.62024 -22.74311,0.68402 -1.79925,0.54424 -2.0815,0.3219 -1.875,-1.47697 0.13371,-1.16471 -0.28424,-2.30479 -0.92877,-2.5335 -0.79806,-0.2832 -1.17187,0.66514 -1.17187,2.97295 0,1.86385 -0.52735,3.58228 -1.17188,3.81875 -3.19954,1.17388 -56.29161,0.90067 -58.00365,-0.29848 z m -8.32447,-7.69031 c -3.51605,-1.12603 -46.647825,-1.12603 -47.343753,0 -0.381305,0.61697 8.013838,0.90555 24.554047,0.84405 14.058066,-0.0523 24.100646,-0.42421 22.789706,-0.84405 z m 98.90625,0 c -0.33957,-0.54943 -5.77255,-0.9375 -13.125,-0.9375 -7.35246,0 -12.78544,0.38807 -13.125,0.9375 -0.37618,0.60867 4.22746,0.9375 13.125,0.9375 8.89754,0 13.50118,-0.32883 13.125,-0.9375 z m 37.5,0 c -0.71093,-1.1503 -25.4481,-1.1503 -28.125,0 -1.1545,0.4961 4.0004,0.83104 13.4147,0.8716 9.9706,0.0429 15.08814,-0.26025 14.7103,-0.8716 z m 34.6875,0 c -0.34125,-0.55215 -5.9288,-0.9375 -13.59375,-0.9375 -7.66496,0 -13.2525,0.38535 -13.59375,0.9375 -0.37651,0.60921 4.3837,0.9375 13.59375,0.9375 9.21004,0 13.97026,-0.32829 13.59375,-0.9375 z m 150.9375,0 c -0.34144,-0.55246 -5.94724,-0.9375 -13.64908,-0.9375 -8.08812,0 -13.06967,0.35733 -13.06967,0.9375 0,0.58208 5.17469,0.9375 13.64908,0.9375 8.86065,0 13.4458,-0.32889 13.06967,-0.9375 z m 37.45875,-0.0667 c -0.72943,-1.18024 -30.4275,-0.92845 -30.4275,0.25797 0,0.41046 6.98583,0.74628 15.52408,0.74628 10.79854,0 15.33515,-0.30569 14.90342,-1.00425 z m 34.26,0.0667 c 0,-0.5819 -5.15625,-0.9375 -13.59375,-0.9375 -8.4375,0 -13.59375,0.3556 -13.59375,0.9375 0,0.5819 5.15625,0.9375 13.59375,0.9375 8.4375,0 13.59375,-0.3556 13.59375,-0.9375 z M 158.19405,406.88468 c -0.32387,-0.52404 -0.98158,-0.71008 -1.46158,-0.41342 -1.30035,0.80365 -1.05789,1.36621 0.58886,1.36621 0.80387,0 1.19659,-0.42876 0.87272,-0.95279 z m 47.3532,0.0153 c 0,-0.51563 -0.42188,-0.9375 -0.9375,-0.9375 -0.51563,0 -0.9375,0.42187 -0.9375,0.9375 0,0.51562 0.42187,0.9375 0.9375,0.9375 0.51562,0 0.9375,-0.42188 0.9375,-0.9375 z m 125.1468,-0.0153 c -0.32387,-0.52404 -0.98158,-0.71008 -1.46158,-0.41342 -1.30035,0.80365 -1.05789,1.36621 0.58886,1.36621 0.80387,0 1.19659,-0.42876 0.87272,-0.95279 z m 47.3532,0.0153 c 0,-0.51563 -0.39698,-0.9375 -0.88217,-0.9375 -0.4852,0 -1.14291,0.42187 -1.46158,0.9375 -0.31868,0.51562 0.0783,0.9375 0.88217,0.9375 0.80386,0 1.46158,-0.42188 1.46158,-0.9375 z m -326.718753,-45 c 0.318674,-0.51563 -0.0783,-0.9375 -0.882172,-0.9375 -0.803867,0 -1.461578,0.42187 -1.461578,0.9375 0,0.51562 0.396977,0.9375 0.882172,0.9375 0.485194,0 1.142904,-0.42188 1.461578,-0.9375 z M 97.73475,361.6656 c 0,-1.09789 -1.36571,-0.82475 -1.757815,0.35157 -0.19336,0.58008 0.123046,0.89648 0.703125,0.70312 0.58008,-0.19336 1.05469,-0.66797 1.05469,-1.05469 z m 486.5625,-18.98437 c 0,-0.77344 -0.42188,-1.40625 -0.9375,-1.40625 -0.51563,0 -0.9375,0.63281 -0.9375,1.40625 0,0.77344 0.42187,1.40625 0.9375,1.40625 0.51562,0 0.9375,-0.63281 0.9375,-1.40625 z m 0,-47.34375 c 0,-0.51563 -0.42188,-0.9375 -0.9375,-0.9375 -0.51563,0 -0.9375,0.42187 -0.9375,0.9375 0,0.51562 0.42187,0.9375 0.9375,0.9375 0.51562,0 0.9375,-0.42188 0.9375,-0.9375 z m -458.4375,-8.4375 c 0,-0.51563 -0.42188,-0.9375 -0.9375,-0.9375 -0.51563,0 -0.9375,0.42187 -0.9375,0.9375 0,0.51562 0.42187,0.9375 0.9375,0.9375 0.51562,0 0.9375,-0.42188 0.9375,-0.9375 z m 47.8125,-0.52408 c 0,-0.22738 -0.65772,-0.41342 -1.46158,-0.41342 -0.80387,0 -1.19659,0.42876 -0.87272,0.95279 0.53513,0.86586 2.3343,0.45014 2.3343,-0.53937 z m 135,0.52408 c 0,-0.51563 -0.42188,-0.9375 -0.9375,-0.9375 -0.51563,0 -0.9375,0.42187 -0.9375,0.9375 0,0.51562 0.42187,0.9375 0.9375,0.9375 0.51562,0 0.9375,-0.42188 0.9375,-0.9375 z m 47.8125,-0.52408 c 0,-0.22738 -0.65772,-0.41342 -1.46158,-0.41342 -0.80387,0 -1.19659,0.42876 -0.87272,0.95279 0.53513,0.86586 2.3343,0.45014 2.3343,-0.53937 z m 170.625,0.52408 c 0,-0.51563 -0.42188,-0.9375 -0.9375,-0.9375 -0.51563,0 -0.9375,0.42187 -0.9375,0.9375 0,0.51562 0.42187,0.9375 0.9375,0.9375 0.51562,0 0.9375,-0.42188 0.9375,-0.9375 z m 47.8125,-0.52408 c 0,-0.22738 -0.65772,-0.41342 -1.46158,-0.41342 -0.80387,0 -1.19659,0.42876 -0.87272,0.95279 0.53513,0.86586 2.3343,0.45014 2.3343,-0.53937 z M 91.511271,182.36872 c -0.809757,-2.11019 -37.839024,-2.11019 -37.839024,0 0,1.2042 2.757147,1.40625 19.189327,1.40625 16.672014,0 19.118536,-0.18448 18.649697,-1.40625 z m 85.342999,0.6293 c 0.86564,-1.40064 -2.94595,-2.00895 -12.67421,-2.02275 -9.38604,-0.0133 -14.88281,0.66865 -14.88281,1.84644 0,1.03565 26.91948,1.20787 27.55702,0.17631 z m 37.59923,-0.6293 c 0,-1.01606 -25.66474,-1.85212 -29.29688,-0.95439 -6.26899,1.54947 -0.96897,2.38731 13.59375,2.14893 9.67239,-0.15832 15.70313,-0.61708 15.70313,-1.19454 z m 33.28125,0.48661 c 0,-1.7183 -21.99619,-2.55697 -26.95313,-1.02767 -3.52574,1.08775 2.37118,1.94731 13.35938,1.94731 8.26148,0 13.59375,-0.36074 13.59375,-0.91964 z m 129.33343,0.31858 c 5.93739,-1.18748 0.56704,-2.18266 -11.85623,-2.19708 -11.26742,-0.0131 -14.431,0.53184 -12.76422,2.19863 0.78031,0.7803 20.71746,0.77905 24.62045,-0.002 z m 38.01032,-0.0542 c 6.48514,-1.09748 0.53309,-1.96002 -14.24155,-2.0638 -12.09923,-0.085 -15.39622,0.42503 -13.70172,2.11954 0.79637,0.79636 23.17183,0.75173 27.94327,-0.0557 z m 35.625,-0.751 c 0,-0.98244 -23.22771,-1.86724 -25.55672,-0.97351 -0.70448,0.27033 -1.01107,0.92807 -0.68131,1.46163 0.79415,1.28496 26.23803,0.81161 26.23803,-0.48812 z m 134.53125,0.48661 c 0,-2.31599 -27.12549,-2.56129 -27.89216,-0.25224 -0.29979,0.90291 2.85652,1.17188 13.75154,1.17188 8.61899,0 14.14062,-0.3591 14.14062,-0.91964 z m 38.4375,0.0824 c 0,-1.73122 -25.30662,-2.99797 -29.29753,-1.46651 -4.29561,1.64838 -0.36178,2.30371 13.82878,2.30371 8.50781,0 15.46875,-0.37674 15.46875,-0.8372 z m 32.34375,-0.56905 c 0,-0.55783 -4.556,-1.04745 -11.25,-1.209 -11.8519,-0.28603 -15.92267,0.18484 -14.96696,1.73123 0.77498,1.25393 26.21696,0.74714 26.21696,-0.52223 z"
         id="path3361"
         inkscape:connector-curvature="0" />
      <path
         style="fill:#a5a7a9"
         d="m 31.605413,522.91559 c -0.245018,-0.64453 -0.337246,-79.21875 -0.204951,-174.60937 l 0.240535,-173.4375 7.5,0 7.5,0 0.280406,4.83647 c 0.232293,4.00659 -0.05008,5.06796 -1.645635,6.18553 -1.921947,1.34618 -1.925533,1.52922 -1.686656,86.10102 l 0.239385,84.75198 52.03125,0.46875 52.031253,0.46875 0.25104,22.13851 0.25104,22.13851 4.90521,0.45342 c 2.69786,0.24938 54.68646,0.35713 115.53021,0.23943 60.84375,-0.1177 155.44922,-0.26454 210.23437,-0.32631 l 99.60938,-0.11231 0,-55.3125 c 0,-43.58282 -0.24852,-55.32927 -1.17188,-55.39159 -0.64453,-0.0435 -106.76148,-0.14897 -235.81545,-0.23437 -207.43885,-0.13729 -234.74663,-0.31833 -235.53251,-1.56154 -0.53159,-0.84094 -0.89472,-21.85174 -0.90331,-52.26563 l -0.0143,-50.85937 -2.57813,-0.0144 c -4.30238,-0.0239 -5.05774,-1.08125 -4.74154,-6.63687 l 0.28842,-5.06752 22.26562,-0.25134 22.26563,-0.25134 0.0128,3.06384 c 0.007,1.68511 0.26806,4.01641 0.58004,5.18066 l 0.56724,2.11683 54.96684,-0.24183 54.96688,-0.24182 0.46875,-4.6875 0.46875,-4.6875 45.46875,0 45.46875,0 0.46875,4.6875 0.46875,4.6875 54.32043,0.24207 c 58.9994,0.26292 56.08533,0.55282 56.21781,-5.59282 l 0.0868,-4.02425 46.875,0 46.875,0 0.46875,4.6875 0.46875,4.6875 55.07812,0.24187 55.07813,0.24187 0.12629,-2.11687 c 0.0695,-1.16428 0.17493,-3.3825 0.23437,-4.92937 l 0.10809,-2.8125 23.37182,-0.25112 c 18.07268,-0.19418 23.54288,0.0184 24.12627,0.9375 1.19284,1.87931 0.97919,175.78935 -0.21872,178.02766 -0.58957,1.10162 -1.84347,1.80518 -3.04688,1.7096 -1.12474,-0.0893 -2.99421,-0.11574 -4.15437,-0.0587 l -2.10937,0.1038 0,55.3125 0,55.3125 4.18577,0 c 3.17884,0 4.41921,0.43622 5.15625,1.81337 1.45265,2.71431 1.30983,53.72227 -0.15452,55.18663 -1.63238,1.63238 -196.74263,1.63238 -198.375,0 -0.61875,-0.61875 -1.125,-2.93906 -1.125,-5.15625 l 0,-4.03125 -55.3125,0 -55.3125,0 0,4.10396 c 0,2.31992 -0.55521,4.56474 -1.27718,5.16392 -2.18074,1.80986 -109.73568,0.99776 -109.97578,-0.83038 -0.10158,-0.77344 -0.44346,-2.99165 -0.75975,-4.92935 l -0.57506,-3.5231 -55.03424,0.24185 -55.03424,0.24185 -0.29898,4.20335 c -0.41282,5.80384 0.61722,5.61004 -29.90242,5.62605 -25.79509,0.0135 -27.44344,-0.0876 -28.32638,-1.73739 -0.51563,-0.96345 -0.70126,-1.98797 -0.41253,-2.27671 0.28874,-0.28874 0.23911,-1.82657 -0.1103,-3.4174 l -0.63528,-2.89242 -30.157057,0.24726 -30.157056,0.24726 -0.304231,3.73811 c -0.167328,2.05597 -0.746328,4.27081 -1.286667,4.92188 -1.382525,1.66584 -23.124302,1.67672 -23.757186,0.0119 z M 206.29406,407.07078 c -0.49281,-2.55911 -50.43431,-2.71439 -50.43431,-0.1568 0,1.64411 1.31328,1.73387 25.369,1.73387 23.26681,0 25.34383,-0.13068 25.06531,-1.57707 z M 378.516,406.89997 c 0,-1.20939 -3.4726,-1.43502 -24.80625,-1.61177 -24.17765,-0.20031 -27.3157,0.12716 -25.73452,2.68556 0.92793,1.50142 50.54077,0.44734 50.54077,-1.07379 z M 98.2035,361.24468 c 0,-0.98111 -0.56591,-1.56528 -1.35084,-1.39443 -2.194199,0.4776 -46.191547,0.16262 -46.999089,-0.33647 -0.995901,-0.61551 -2.079406,1.25978 -1.540051,2.66546 0.80993,2.11084 49.88998,1.19145 49.88998,-0.93456 z m 486.7193,-42.22252 c -0.14343,-22.92817 -0.29488,-25.0919 -1.77622,-25.37716 -1.50275,-0.28938 -1.61676,1.51646 -1.5825,25.06531 0.0351,24.07896 0.1259,25.37716 1.77622,25.37716 1.65463,0 1.73168,-1.22048 1.5825,-25.06531 z M 173.67225,286.87452 c 0,-1.62905 -1.37237,-1.72243 -25.3125,-1.72243 -24.91138,0 -27.39068,0.29471 -24.74412,2.94126 1.68165,1.68166 50.05662,0.50377 50.05662,-1.21883 z m 182.8125,0.012 c 0,-1.6448 -1.30865,-1.73447 -25.3125,-1.73447 -24.85309,0 -27.38735,0.29804 -24.77214,2.91325 1.67528,1.6753 50.08464,0.53595 50.08464,-1.17875 z m 218.4375,-0.0196 c 0,-1.63964 -1.32131,-1.72832 -25.3125,-1.69901 -24.81565,0.0304 -27.34063,0.32885 -24.74412,2.92536 1.68792,1.68799 50.05662,0.503 50.05662,-1.22626 z M 83.203497,222.25933 c -9.737251,-2.41905 -20.963411,-10.42236 -26.154953,-18.6463 -2.651631,-4.20045 -7.244207,-16.59515 -6.445064,-17.39429 1.236179,-1.23618 1.950535,-0.417 2.569768,2.94685 2.338125,12.70139 18.341105,30.06383 27.889708,30.25896 0.661672,0.0135 2.890541,0.82313 4.953041,1.79912 3.900279,1.84564 2.509431,2.3578 -2.8125,1.03566 z m 8.2057,-0.72822 c 1.432564,-1.58297 1.63805,-3.94707 1.63805,-18.84558 0,-10.96716 0.341016,-17.03556 0.957319,-17.03556 0.627691,0 0.869794,6.37538 0.703125,18.51562 l -0.254194,18.51563 -2.341175,0.32995 c -2.257503,0.31817 -2.282632,0.26527 -0.703125,-1.48006 z"
         id="path3359"
         inkscape:connector-curvature="0" />
      <path
         style="fill:#595a5b"
         d="m 32.554386,522.008 c -0.251332,-0.66097 -0.348725,-79.03772 -0.216428,-174.17053 l 0.240539,-172.96875 4.625371,-0.29278 c 7.819834,-0.49498 8.968379,0.14089 8.968379,4.96516 0,3.21203 -0.431137,4.39864 -1.8799,5.17399 -1.863253,0.99719 -1.877782,1.7675 -1.640625,86.98611 l 0.239275,85.98002 2.012944,0.28694 c 3.443076,0.49081 3.54973,6.42865 0.127762,7.11305 l -2.620894,0.52417 0.240094,73.38167 0.240094,73.38167 6.09375,0.46875 6.09375,0.46875 0,4.6875 0,4.6875 -11.033572,0.26428 c -8.306426,0.19896 -11.146519,-0.0327 -11.490539,-0.9375 z m 86.664214,0.4528 c -0.0433,-0.39439 -0.14873,-2.61552 -0.23438,-4.93583 l -0.15572,-4.21875 10.3125,-0.46875 10.3125,-0.46875 0.24017,-73.0661 c 0.19008,-57.83275 -0.006,-73.22196 -0.9375,-73.81376 -0.64772,-0.41122 -9.84687,-0.75414 -20.44255,-0.76204 l -19.26487,-0.0143 0.38307,-3.28125 0.38306,-3.28125 23.33494,0 c 12.83421,0 23.42113,0.10547 23.5265,0.23437 0.10535,0.12891 0.42176,10.35938 0.70312,22.73438 l 0.51156,22.5 3.51562,0.29097 c 5.57015,0.46101 5.44525,6.74028 -0.13407,6.74028 -2.46322,0 -3.83469,0.48209 -4.21875,1.48293 -0.84329,2.19756 -0.66282,98.16804 0.18711,99.50576 0.50462,0.79424 4.87948,1.22498 14.28252,1.40625 l 13.55507,0.26131 0,4.6875 0,4.6875 -27.89063,0.24833 c -15.33984,0.13657 -27.92601,-0.0743 -27.96927,-0.46875 z m 169.71233,-0.007 c -0.0296,-0.39087 -0.23904,-2.49599 -0.46542,-4.67803 -0.49497,-4.7708 -0.34374,-4.83238 12.70674,-5.1743 l 8.90625,-0.23335 0,-50.625 0,-50.625 -51.5625,-0.46875 c -28.35938,-0.25781 -51.45703,-0.78515 -51.32813,-1.17187 0.12891,-0.38672 0.23438,-1.75782 0.23438,-3.04688 l 0,-2.34375 60,0 60,0 0,3.23226 0,3.23225 -4.92188,0.28337 -4.92187,0.28337 0,50.625 0,50.625 40.3125,0.49398 c 22.17187,0.27169 40.44108,0.58809 40.59824,0.70312 0.15716,0.11504 0.15716,2.21306 0,4.66228 l -0.28574,4.45312 -54.60938,0.24193 c -30.03515,0.13306 -54.63359,-0.0779 -54.66319,-0.46875 z m 222.8706,0.0748 c -1.33305,-1.33304 -0.65843,-8.54249 0.85365,-9.12272 0.8156,-0.31278 16.21768,-0.56885 34.22682,-0.56885 l 32.74389,0 -0.24245,-50.85938 -0.24244,-50.85937 -100.06977,-0.23861 -100.06977,-0.23862 0.33304,-3.04263 0.33303,-3.04264 99.73673,-0.46875 99.73674,-0.46875 0.46875,-29.0625 0.46875,-29.0625 3.04687,-0.29377 3.04688,-0.29378 0.0143,82.79378 c 0.008,45.53657 0.35129,83.32449 0.7631,83.97315 0.59064,0.93036 12.51386,1.12831 56.47001,0.9375 l 55.7213,-0.24188 0.46875,-22.5 0.46875,-22.5 4.6875,0 4.6875,0 0,27.65625 0,27.65625 -98.51135,0.23865 c -54.18124,0.13126 -98.79452,-0.0445 -99.14062,-0.39062 z M 700.07111,353.27985 c -0.25135,-0.673 -0.56346,-15.14551 -0.69356,-32.16113 l -0.23655,-30.9375 -55.42596,-0.24176 c -48.45152,-0.21134 -55.57358,-0.0639 -56.59916,1.17187 -1.51001,1.81946 -5.99859,1.82387 -7.50613,0.007 -0.6419,-0.77344 -1.74824,-1.40625 -2.45854,-1.40625 -0.85045,-1.1e-4 -1.29146,-1.1183 -1.29146,-3.27462 l 0,-3.27451 61.64062,-0.24111 61.64063,-0.24112 0,-48.75 0,-48.75 -17.8125,-0.46875 -17.8125,-0.46875 -0.28451,-4.42268 c -0.36698,-5.70498 -1.13029,-5.54651 25.12826,-5.21701 l 21.09375,0.26469 0,89.53125 0,89.53125 -4.46269,0.28613 c -3.02851,0.19418 -4.60956,-0.10711 -4.9197,-0.9375 z M 107.10975,238.33747 c 0,-55.8176 0.22049,-53.625 -5.39275,-53.625 l -3.14274,0 0.28337,-4.92188 0.28337,-4.92187 20.50652,-0.25298 c 22.73645,-0.28049 22.76807,-0.27265 22.62308,5.60694 l -0.0992,4.02104 -14.01522,0.46875 -14.01522,0.46875 0,48.75 0,48.75 4.21875,0.46875 c 2.32031,0.25781 4.11328,0.78516 3.98437,1.17187 -0.1289,0.38672 -0.23437,1.75782 -0.23437,3.04688 0,2.30468 -0.125,2.34375 -7.5,2.34375 l -7.5,0 0,-51.375 z m 67.5,48.10131 0,-3.2737 54.60937,-0.24193 54.60938,-0.24193 0,-48.75 0,-48.75 -14.34502,-0.25905 -14.345,-0.25905 0.2825,-4.8972 0.28252,-4.8972 44.53125,0 44.53125,0 0.28337,4.92187 0.28336,4.92188 -26.06461,0.0143 c -14.33554,0.008 -26.59584,0.3516 -27.2451,0.76378 -0.92918,0.58987 -1.12876,11.01489 -0.9375,48.97001 l 0.24298,48.22061 7.03125,0.46875 c 3.86718,0.25781 6.92578,0.78516 6.79687,1.17187 -0.1289,0.38672 -0.23437,1.75782 -0.23437,3.04688 l 0,2.34375 -65.15625,0 -65.15625,0 0,-3.27369 z m 182.8125,-0.007 0,-3.28125 76.30594,0 c 68.71621,0 76.36256,-0.1475 76.875,-1.48293 1.27397,-3.31991 0.62513,-94.80345 -0.68007,-95.88667 -0.82674,-0.68614 -9.78236,-1.12122 -26.48437,-1.28667 l -25.23525,-0.25004 -0.28451,-4.42268 c -0.37676,-5.85702 -3.51587,-5.51683 48.09701,-5.2123 l 44.0625,0.25998 0.28259,4.89953 0.2826,4.89953 -16.2201,0.25672 -16.22009,0.25672 0,48.74079 0,48.7408 2.75934,0.47795 c 1.51764,0.26288 2.6778,0.79437 2.57813,1.18108 -0.0997,0.38672 -0.18122,1.75782 -0.18122,3.04688 l 0,2.34375 -82.96875,0 -82.96875,0 0,-3.28125 z"
         id="path3351"
         inkscape:connector-curvature="0" />
      <path
         style="fill:#0e0b07"
         d="m 33.279134,349.04008 0.236863,-173.23386 3.660635,-0.29961 c 7.649889,-0.62612 11.980881,5.16549 6.183115,8.26836 -1.854342,0.99241 -1.875,1.96296 -1.875,88.09278 l 0,87.08931 2.109375,0.29958 c 2.937371,0.41717 3.275497,3.7739 0.502354,4.98708 l -2.142979,0.9375 0,74.0625 0,74.0625 6.09375,0.46875 6.09375,0.46875 0,3.75 0,3.75 -10.549363,0.26511 -10.549363,0.26509 0.236863,-173.23384 z m 86.955616,168.98536 0,-4.18704 10.07812,-0.26609 10.07813,-0.26609 0.23999,-74.18606 0.24,-74.18606 -2.115,-0.56677 c -1.16324,-0.31172 -10.26543,-0.57252 -20.22707,-0.57956 l -18.11208,-0.0128 0.29958,-2.10938 0.29958,-2.10937 22.03125,0 22.03125,0 0.51155,22.5 c 0.28137,12.375 0.59777,22.60547 0.70313,22.73437 0.10536,0.12891 1.61893,0.23438 3.36348,0.23438 2.35194,0 3.29499,0.47067 3.64803,1.82072 0.61213,2.34077 0.0263,2.86678 -3.19321,2.86678 -1.63406,0 -2.98922,0.6838 -3.59375,1.81337 -1.04212,1.94721 -1.40593,96.31045 -0.38599,100.11529 0.54118,2.01884 0.99375,2.0931 14.28407,2.34375 l 13.72519,0.25884 0.28828,3.98437 0.28828,3.98438 -27.24141,0 -27.2414,0 0,-4.18703 z m 169.86759,0.21035 0.28866,-3.99207 10.3125,-0.46875 10.3125,-0.46875 0,-51.5625 0,-51.5625 -51.39228,-0.24241 -51.39228,-0.24241 0.29853,-2.10134 0.29853,-2.10134 58.35937,-0.24147 58.35938,-0.24147 0,2.29948 c 0,2.07814 -0.42866,2.32699 -4.45313,2.58522 l -4.45312,0.28574 0,51.5625 0,51.5625 40.3125,0.46875 40.3125,0.46875 0,3.75 0,3.75 -53.72616,0.24207 -53.72616,0.24208 0.28866,-3.99208 z m 222.37849,2.65397 c -0.281,-0.73227 -0.37398,-2.5272 -0.20662,-3.98872 l 0.30429,-2.65732 33.9923,-0.24608 33.99231,-0.24608 -0.24231,-51.78516 -0.2423,-51.78518 -99.60938,-0.23863 -99.60937,-0.23864 0,-2.33949 0,-2.33949 99.1875,0 c 75.89583,0 99.45168,-0.26418 100.3125,-1.125 0.82438,-0.82438 1.125,-8.54861 1.125,-28.90625 0,-28.16459 0.0969,-29.29496 2.43541,-28.3976 1.11379,0.4274 1.31678,13.05435 1.32894,82.66978 0.008,45.19092 0.35125,82.69599 0.76302,83.34458 0.59073,0.93049 12.70125,1.12827 57.40752,0.9375 l 56.65886,-0.24176 0.46875,-22.5 0.46875,-22.5 3.75,0 3.75,0 0,26.71875 0,26.71875 -97.76214,0.23872 c -83.74785,0.20449 -97.83537,0.0478 -98.27303,-1.09268 z M 701.02115,352.68638 c -0.26065,-0.26065 -0.4739,-14.24109 -0.4739,-31.06766 0,-22.54513 -0.29597,-30.88972 -1.125,-31.71875 -1.87015,-1.87014 -111.69086,-1.59741 -113.25,0.28125 -2.24376,2.70356 -7.90335,0.17568 -8.59767,-3.84019 -0.30011,-1.73581 1.37751,-1.79768 61.09767,-2.25356 l 61.40625,-0.46875 0.24288,-48.64369 c 0.17312,-34.67392 -0.0568,-49.00481 -0.80068,-49.90111 -0.78679,-0.94802 -5.20733,-1.32019 -17.96611,-1.51255 l -16.92256,-0.25515 -0.0893,-3.1266 c -0.13678,-4.79066 0.39787,-4.8982 22.99753,-4.62602 l 20.97569,0.25262 0,88.55512 0,88.55513 -3.51047,0.1219 c -1.93076,0.067 -3.72373,-0.0913 -3.98438,-0.35199 z M 108.48612,287.60309 c -0.24188,-0.64453 -0.54504,-24.16406 -0.6737,-52.26562 l -0.23392,-51.09375 -4.03553,-0.29078 -4.03552,-0.29078 0.28552,-3.92797 0.28553,-3.92797 20.15625,0 20.15625,0 0.28828,3.98437 0.28828,3.98438 -12.94453,0.0143 c -7.11949,0.008 -13.47568,0.35155 -14.12486,0.76368 -0.92934,0.58999 -1.12869,11.20225 -0.9375,49.90752 l 0.24283,49.1582 3.98437,0.28828 c 3.52131,0.25478 3.98438,0.55441 3.98438,2.57813 0,2.62483 -11.73262,3.65878 -12.68613,1.11796 z m 67.99863,-0.23437 c 0,-0.77344 -0.10547,-1.72266 -0.23438,-2.10938 -0.1289,-0.38671 24.23438,-0.91406 54.14063,-1.17187 l 54.375,-0.46875 0.24288,-48.64369 c 0.17547,-35.14218 -0.0516,-48.99847 -0.81792,-49.92188 -0.80604,-0.97122 -4.31079,-1.27818 -14.59366,-1.27818 l -13.53287,0 0.28829,-3.98438 0.28828,-3.98437 43.59375,0 43.59375,0 0.28828,3.98437 0.28828,3.98438 -26.11641,0 c -19.06276,0 -26.42025,0.30385 -27.2414,1.125 -1.62189,1.62189 -1.62189,96.44062 0,98.0625 0.63691,0.63691 3.68749,1.125 7.03125,1.125 5.67499,0 5.90625,0.0918 5.90625,2.34375 l 0,2.34375 -63.75,0 c -56.04167,0 -63.75,-0.17003 -63.75,-1.40625 z m 182.55505,-0.41447 c -0.76759,-2.93525 -2.58889,-2.86678 76.2509,-2.86678 68.14629,0 75.73759,-0.14764 76.24999,-1.48293 1.27455,-3.32143 0.62512,-96.67846 -0.68007,-97.76167 -0.82643,-0.68587 -9.75828,-1.12128 -26.39475,-1.28667 l -25.14562,-0.24998 -0.0896,-3.1266 c -0.14184,-4.94837 -0.85534,-4.87669 45.9552,-4.61713 l 43.95518,0.24373 0.28718,3.96201 0.28719,3.96201 -16.22469,0.25674 -16.22468,0.25674 0,49.6875 0,49.6875 2.57812,0.29664 c 2.02497,0.233 2.57813,0.78616 2.57813,2.57813 l 0,2.28148 -81.45316,0 c -79.85519,0 -81.4625,-0.0357 -81.92929,-1.82072 z"
         id="path3349"
         inkscape:connector-curvature="0" />
      <rect
         style="fill:#ff6600;fill-opacity:0.54189944"
         id="rect3367"
         width="171.73914"
         height="103.26094"
         x="113.52929"
         y="181.31613"
         ry="6.4868612" />
    </g>
  </g>
</svg>
